<?xml version="1.0" encoding="UTF-8" standalone="no"?>
<!-- Generator: Adobe Illustrator 22.0.0, SVG Export Plug-In . SVG Version: 6.00 Build 0)  -->

<svg
   version="1.1"
   x="0px"
   y="0px"
   viewBox="0 0 484.8 275"
   xml:space="preserve"
   id="svg84"
   sodipodi:docname="logo2.svg"
   width="484.79999"
   height="275"
   inkscape:version="1.1.2 (b8e25be833, 2022-02-05)"
   xmlns:inkscape="http://www.inkscape.org/namespaces/inkscape"
   xmlns:sodipodi="http://sodipodi.sourceforge.net/DTD/sodipodi-0.dtd"
   xmlns="http://www.w3.org/2000/svg"
   xmlns:svg="http://www.w3.org/2000/svg"><defs
   id="defs88">
	
</defs><sodipodi:namedview
   id="namedview86"
   pagecolor="#ffffff"
   bordercolor="#666666"
   borderopacity="1.0"
   inkscape:pageshadow="2"
   inkscape:pageopacity="0.0"
   inkscape:pagecheckerboard="0"
   showgrid="false"
   width="654.79999px"
   inkscape:zoom="0.75407407"
   inkscape:cx="187.64735"
   inkscape:cy="177.70138"
   inkscape:window-width="1280"
   inkscape:window-height="737"
   inkscape:window-x="-8"
   inkscape:window-y="-8"
   inkscape:window-maximized="1"
   inkscape:current-layer="g81" />
<style
   type="text/css"
   id="style2">
	.st0{fill:none;}
	.st1{fill:#F18755;}
	.st2{fill:#FEFCF3;}
	.st3{fill:#FFFDF0;}
	.st4{fill:#0076B0;}
</style>
<g
   id="Capa_14">
	<rect
   class="st0"
   width="854.79999"
   height="675"
   id="rect4"
   x="0"
   y="0" />
</g>
<g
   id="g81">
		
		<path
   class="st2"
   d="m 228.56798,243.51768 c -4.2,0 -8.1,-0.7 -11,-3.5 -2.5,-2.5 -3.6,-4.9 -3.6,-10.3 v -18.7 c 0,0 12.2,-0.4 12.2,4.6 0,5 0,12.2 0,12.2 v 0 c 0.1,3.6 -0.5,8 3.8,8 4.5,0 3.7,-4.8 3.7,-8.1 0,0 0,-6.6 0,-12 0,-5.4 11.1,-4.6 11.1,-4.6 v 18.8 c 0,5.3 -0.8,7.6 -3.9,10.4 -2.8,2.4 -6.8,3.3 -12.3,3.2 z"
   id="path33" />
		
		<path
   class="st3"
   d="m 245.36798,5.9186917 c 0.1,-2.80135 -3.3,-2.80135 -3.7,0 -0.1,1.60078 -0.6,28.7138603 -5.3,59.1285403 -2.3,14.80715 -0.7,34.11646 -1.2,56.527278 -0.4,16.40792 -1.2,17.70855 -1.5,32.61574 -0.4,27.31318 0,63.73076 0,63.73076 v 0 c 0,4.80231 0,9.80473 0,9.80473 -0.1,3.3016 0.7,8.00386 -3.7,8.10391 -4.4,0 -3.7,-4.40212 -3.8,-8.00386 0,0 0,-7.10343 0,-12.20589 0,-5.10246 -12.2,-4.60222 -12.2,-4.60222 v 18.70903 c 0,5.4026 1.1,7.80377 3.6,10.30497 2.9,2.80135 6.8,3.50169 11,3.50169 5.5,0.10005 9.4,-0.80039 12.2,-3.30159 3.1,-2.80135 3.9,-5.20251 3.9,-10.40503 v -14.90719 0 c 0.2,-42.02028 0.7,-207.9003283 0.7,-209.0008683 z"
   id="path53"
   style="stroke-width:1.00024;fill:#ececec" />
		<g
   id="g79"
   transform="translate(-184.33202,-125.98232)">
			<g
   id="g63">
				<g
   id="g57">
					<path
   class="st4"
   d="m 194.8,292.3 c 0,0 71.2,-128.9 233.1,-128.9 144.4,0 231.2,137.3 229.2,135.3 -0.3,-0.3 -24.1,-12 -46.5,-19.3 -11.3,-3.7 -14.9,8.1 -23.7,3 -15.7,-8.9 -28.3,-14.2 -42.2,-14.4 -12.8,-0.2 -27.1,17.1 -34.2,14.8 -17.1,-5.7 -34.8,-17.1 -49,-17.1 -45.8,0 -43.3,29.3 -53.7,21.6 -10.3,-7.6 -12.6,-16.1 -47.1,-17.9 -42.4,-2.3 -47.7,23.7 -58.4,19.1 -8.9,-3.8 -10.3,-10.2 -46.5,-11 -34.2,-0.7 -61,14.8 -61,14.8 z"
   id="path55" />
				</g>
				<g
   id="g61">
					<path
   class="st3"
   d="m 657.2,299.8 c -0.3,0 -0.6,-0.1 -0.8,-0.3 -0.7,-0.4 -24,-11.9 -46.1,-19.1 -1.4,-0.5 -2.7,-0.7 -4,-0.7 -3.1,0 -5.6,1.3 -7.9,2.6 -2.3,1.2 -4.5,2.4 -7.1,2.4 -1.6,0 -3.2,-0.5 -4.9,-1.4 -14.7,-8.4 -27.5,-14.1 -41.7,-14.3 0,0 0,0 0,0 -6.5,0 -13.4,4.6 -19.5,8.6 -5.2,3.4 -9.6,6.4 -13.2,6.4 -0.6,0 -1.2,-0.1 -1.8,-0.3 -6.1,-2 -12.4,-4.8 -18.4,-7.5 -11,-4.9 -21.4,-9.5 -30.3,-9.5 -28,0 -37.6,11 -43.3,17.6 -2.7,3.1 -4.6,5.3 -7.3,5.3 -1.2,0 -2.5,-0.5 -3.8,-1.5 -2,-1.4 -3.6,-2.9 -5.3,-4.3 -7,-6.1 -13.6,-11.9 -41.3,-13.4 -26,-1.4 -37.9,8.1 -45.6,14.2 -3.8,3.1 -6.8,5.5 -10.2,5.5 -1,0 -2,-0.2 -3,-0.6 -2,-0.8 -3.5,-1.8 -5.2,-2.7 -5.9,-3.5 -12.7,-7.5 -40.9,-8.1 -33.5,-0.7 -60.2,14.4 -60.4,14.6 -0.4,0.2 -1,0.2 -1.3,-0.2 -0.3,-0.3 -0.4,-0.9 -0.2,-1.3 0.2,-0.3 18.3,-32.8 56.1,-64.7 34.9,-29.5 94,-64.7 178,-64.7 137.3,0 223,124 229.9,135.6 0.1,0 0.1,0.1 0.1,0.1 v 0 c 0.3,0.4 0.4,0.7 0.4,0.7 0.1,0.5 -0.4,1 -1,1 0,0 0,0 0,0 z m -50.9,-22.2 c 1.5,0 3.1,0.3 4.7,0.8 16.9,5.5 35.3,13.8 43.1,17.6 -13.8,-20.4 -95.9,-131.5 -226.2,-131.5 -83.3,0 -141.9,34.9 -176.5,64.1 -30.5,25.8 -48.1,51.9 -53.7,60.9 8.4,-4.1 31.1,-13.7 58.1,-13.1 28.8,0.6 35.8,4.8 42,8.4 1.6,0.9 3.1,1.8 4.9,2.6 3.4,1.5 6.4,-0.9 11,-4.5 7.9,-6.3 20.2,-16.1 47.1,-14.7 28.5,1.5 35.3,7.5 42.6,13.9 1.6,1.4 3.2,2.8 5.1,4.2 1,0.7 1.8,1.1 2.6,1.1 1.7,0 3.3,-1.9 5.6,-4.5 6,-6.9 16,-18.4 44.9,-18.4 9.4,0 19.9,4.7 31.1,9.7 6,2.7 12.2,5.4 18.2,7.4 2.8,0.9 7.8,-2.3 13.1,-5.8 6.4,-4.2 13.6,-9 20.6,-9 0,0 0.2,0 0.2,0 14.7,0.2 27.7,6 42.7,14.6 1.3,0.8 2.6,1.1 3.8,1.1 2.1,0 3.9,-1 6,-2.2 2.5,-1.2 5.4,-2.7 9,-2.7 z"
   id="path59" />
				</g>
			</g>
			<g
   id="g77">
				<g
   id="g67">
					<path
   class="st3"
   d="m 305.3,290 -0.9,-2 0.4,1 -1,-0.4 0.1,-0.4 c 2.8,-8.7 14.2,-39.6 43.4,-69.1 27.6,-28 76.7,-56.4 77.2,-56.7 0.5,-0.3 1.2,-0.1 1.5,0.4 0.3,0.5 0.1,1.2 -0.4,1.5 -0.5,0.3 -49.4,28.6 -76.8,56.3 -28.8,29.1 -40.1,59.6 -42.8,68.2 -0.2,0.7 -0.3,1 -0.7,1.2 z"
   id="path65" />
				</g>
				<g
   id="g71">
					<path
   class="st3"
   d="m 410.4,289.6 c 0,0 -0.1,0 -0.1,0 -0.6,-0.1 -1,-0.6 -0.9,-1.2 L 425,163.3 c 0.1,-0.4 0.4,-0.8 0.8,-0.9 0.4,-0.1 0.9,0 1.2,0.4 l 87.7,119.4 c 0.4,0.5 0.3,1.2 -0.2,1.5 -0.5,0.4 -1.2,0.3 -1.5,-0.2 L 427,166.3 411.7,288.7 c -0.3,0.5 -0.8,0.9 -1.3,0.9 z"
   id="path69" />
				</g>
				<g
   id="g75">
					<path
   class="st3"
   d="m 590.8,284.9 c -0.3,0 -0.5,-0.1 -0.7,-0.3 -0.5,-0.5 -54.1,-48.4 -79.3,-71.7 -25.1,-23.2 -84.6,-48.2 -85.2,-48.5 -0.6,-0.2 -0.8,-0.9 -0.6,-1.4 0.2,-0.6 0.9,-0.8 1.4,-0.6 0.6,0.3 60.5,25.4 85.9,48.9 25.2,23.3 78.7,71.2 79.3,71.6 0.5,0.4 0.5,1.1 0.1,1.5 -0.3,0.4 -0.6,0.5 -0.9,0.5 z"
   id="path73" />
				</g>
			</g>
		</g>
	</g>
</svg>
